<?xml version="1.0" encoding="UTF-8"?>
<svg version="1.1" xmlns="http://www.w3.org/2000/svg" width="440" height="242">
<path d="M0 0 C27.56950732 1.14872947 27.56950732 1.14872947 38.51168823 1.83483887 C39.7828729 1.91257522 41.05405756 1.99031157 42.36376297 2.07040358 C45.80204966 2.2807319 49.2401523 2.49393393 52.67822528 2.70772338 C56.42025374 2.93987359 60.16245483 3.169212 63.90463257 3.39894104 C71.19605362 3.84699238 78.4873162 4.29757217 85.77852295 4.74909604 C91.7055363 5.11608386 97.63261006 5.48208147 103.55972672 5.84739685 C104.83273513 5.92585833 104.83273513 5.92585833 106.13146088 6.00590488 C107.85620258 6.11220338 109.58094445 6.21849911 111.30568649 6.32479209 C126.48825875 7.26056594 141.67068192 8.19873725 156.85302734 9.13818359 C171.55927795 10.04817026 186.26565607 10.95606219 200.97216797 11.86181641 C217.03922217 12.85136679 233.10620049 13.84213409 249.17305291 14.83495569 C250.88659988 14.94083907 252.60014691 15.04672156 254.313694 15.15260315 C255.15655314 15.20468554 255.99941227 15.25676794 256.8678126 15.31042859 C262.79047436 15.67632671 268.71318792 16.04137872 274.63592148 16.40611267 C281.84857423 16.8503131 289.0611397 17.29590135 296.27359866 17.74323785 C299.94878001 17.97115061 303.62399556 18.1984669 307.29931641 18.42411995 C311.28836903 18.66905716 315.2772314 18.91696803 319.26608276 19.16516113 C320.41899555 19.23549419 321.57190834 19.30582725 322.75975788 19.37829161 C324.3767512 19.47962991 324.3767512 19.47962991 326.02641106 19.58301544 C327.40464698 19.66820899 327.40464698 19.66820899 328.81072605 19.75512362 C333.21373075 20.09319174 337.60595131 20.56059513 342 21 C342 28.26 342 35.52 342 43 C344.72507812 42.72414062 347.45015625 42.44828125 350.2578125 42.1640625 C364.85238833 40.74482701 379.48117103 39.74691875 394.10693359 38.71289062 C398.11572053 38.42943168 402.12416519 38.14141064 406.13253593 37.8521328 C409.25517104 37.62727812 412.37797195 37.40479912 415.50082779 37.18303299 C416.97995327 37.07771221 418.45902732 36.97166617 419.9380455 36.86484909 C421.9961316 36.71656504 424.05442086 36.57149829 426.11279297 36.42724609 C427.85977982 36.30305801 427.85977982 36.30305801 429.64205933 36.17636108 C433.10124473 35.99468257 436.53669733 35.98839727 440 36 C440.05877141 46.28163912 439.89266429 56.53645087 439.55688477 66.81347656 C439.50904928 68.3316334 439.4614176 69.84979666 439.41397095 71.3679657 C439.28594182 75.44474152 439.15495738 79.5214172 439.0232861 83.59807682 C438.88479369 87.89856866 438.74873065 92.19913751 438.61228943 96.49969482 C438.38277783 103.7216936 438.15132542 110.9436282 437.91870117 118.16552734 C437.6513924 126.46497213 437.38718274 134.76451116 437.12464482 143.06410813 C436.87019103 151.1057427 436.61347954 159.14730375 436.35578728 167.18883514 C436.24703381 170.58381672 436.13904415 173.97882124 436.03170967 177.37384796 C434.95852201 211.27167183 434.95852201 211.27167183 434 227 C401.60419549 228.97795212 369.17699204 230.31851986 336.75255862 231.72313903 C331.03844648 231.97069794 325.32437268 232.21912559 319.61032295 232.46812057 C318.37765382 232.52183365 318.37765382 232.52183365 317.12008228 232.57663184 C315.44953748 232.64942815 313.77899275 232.72222609 312.1084481 232.79502563 C296.5732563 233.47192142 281.03795013 234.14616095 265.50260223 234.81946294 C252.20126472 235.39600963 238.90003466 235.97498478 225.59887695 236.55566406 C210.06989662 237.23360127 194.54084934 237.9099726 179.01169497 238.58391225 C177.35589085 238.6557762 175.70008683 238.72764242 174.04428291 238.79951096 C173.22998133 238.83485441 172.41567975 238.87019787 171.57670237 238.90661234 C165.86318307 239.15470804 160.14971317 239.40392134 154.43626213 239.65358353 C147.48467865 239.95732191 140.53302371 240.2593583 133.58127248 240.55923368 C130.04146531 240.7119723 126.50169494 240.865458 122.96201134 241.02103615 C119.11870077 241.18993397 115.27523488 241.35510174 111.43174744 241.51992798 C109.77155347 241.59375511 109.77155347 241.59375511 108.07782024 241.6690737 C107.03658459 241.71312445 105.99534894 241.75717519 104.92256069 241.80256081 C104.0379612 241.84096758 103.15336171 241.87937434 102.24195617 241.91894495 C97.49604366 242.03760176 92.74739561 242 88 242 C88 225.83 88 209.66 88 193 C58.96 193 29.92 193 0 193 C0 129.31 0 65.62 0 0 Z " fill="#F4F4F5" transform="translate(0,0)"/>
</svg>
